<svg width="24" height="24" viewBox="0 0 24 24" fill="none" xmlns="http://www.w3.org/2000/svg">
<mask id="mask0_2001_1212" style="mask-type:alpha" maskUnits="userSpaceOnUse" x="1" y="1" width="22" height="22">
<rect x="1.06433" y="1.06433" width="21.8713" height="21.8713" fill="#D9D9D9" stroke="#1D1E23" stroke-width="0.128655"/>
</mask>
<g mask="url(#mask0_2001_1212)">
<path d="M12.78 4.34473V10.1328L16.6345 6.27344L16.8621 6.0459L17.0896 6.27344L17.7253 6.91016L17.9529 7.1377L17.7253 7.36523L13.8669 11.2197H19.655V12.7793H13.8669L17.7253 16.6338L17.95 16.8574L17.7292 17.085L17.0925 17.7393L16.865 17.9736L16.6345 17.7422L12.78 13.8828V19.6543H11.2205V13.8828L7.36597 17.7422L7.13843 17.9697L6.91089 17.7422L6.25659 17.0889L6.02905 16.8613L6.25659 16.6338L10.116 12.7793H4.34546V11.2197H10.116L6.25659 7.36523L6.02612 7.13477L6.25952 6.90723L6.91382 6.27051L7.14136 6.04883L7.36597 6.27344L11.2205 10.1328V4.34473H12.78Z" fill="#1C1B1F" stroke="#1C1B1F" stroke-width="0.643275"/>
</g>
</svg>
