<svg width="24" height="24" viewBox="0 0 24 24" fill="none" xmlns="http://www.w3.org/2000/svg">
<path d="M2.53989 4.71L3.24989 4L19.9999 20.75L19.2899 21.46L15.9499 18.11C14.5799 18.68 13.0799 19 11.4999 19C6.93989 19 2.99989 16.35 1.13989 12.5C2.10989 10.5 3.62989 8.83 5.49989 7.68L2.53989 4.71ZM11.4999 18C12.7899 18 14.0299 17.77 15.1699 17.34L14.0499 16.21C13.3199 16.71 12.4499 17 11.4999 17C8.99989 17 6.99989 15 6.99989 12.5C6.99989 11.55 7.28989 10.68 7.78989 9.95L6.23989 8.41C4.56554 9.38547 3.18937 10.7997 2.25989 12.5C4.03989 15.78 7.49989 18 11.4999 18ZM20.7399 12.5C18.9599 9.22 15.4999 7 11.4999 7C10.3499 7 9.22989 7.19 8.18989 7.53L7.40989 6.75C8.67989 6.26 10.0599 6 11.4999 6C16.0599 6 19.9999 8.65 21.8599 12.5C20.9511 14.3858 19.5436 15.987 17.7899 17.13L17.0699 16.4C18.5999 15.44 19.8699 14.1 20.7399 12.5ZM11.4999 8C13.9999 8 15.9999 10 15.9999 12.5C15.9999 13.32 15.7799 14.08 15.3999 14.74L14.6599 14C14.8799 13.54 14.9999 13.04 14.9999 12.5C14.9999 11.5717 14.6311 10.6815 13.9748 10.0251C13.3184 9.36875 12.4281 9 11.4999 9C10.9599 9 10.4599 9.12 9.99989 9.34L9.25989 8.6C9.91989 8.22 10.6799 8 11.4999 8ZM7.99989 12.5C7.99989 13.4283 8.36864 14.3185 9.02502 14.9749C9.6814 15.6313 10.5716 16 11.4999 16C12.1699 16 12.7899 15.81 13.3199 15.5L8.49989 10.68C8.18989 11.21 7.99989 11.83 7.99989 12.5Z" fill="#938F99"/>
</svg>
