<svg width="25" height="24" viewBox="0 0 25 24" fill="none" xmlns="http://www.w3.org/2000/svg">
<path d="M12 16.5H13V11H12V16.5ZM12.5 9.575C12.6667 9.575 12.8127 9.51667 12.938 9.4C13.0627 9.28333 13.125 9.13333 13.125 8.95C13.125 8.78333 13.0627 8.64167 12.938 8.525C12.8127 8.40833 12.6667 8.35 12.5 8.35C12.3333 8.35 12.1873 8.40833 12.062 8.525C11.9373 8.64167 11.875 8.78333 11.875 8.95C11.875 9.13333 11.9373 9.28333 12.062 9.4C12.1873 9.51667 12.3333 9.575 12.5 9.575ZM12.5 21C11.25 21 10.0793 20.7627 8.988 20.288C7.896 19.8127 6.946 19.1707 6.138 18.362C5.32933 17.554 4.68733 16.604 4.212 15.512C3.73733 14.4207 3.5 13.25 3.5 12C3.5 10.75 3.73733 9.579 4.212 8.487C4.68733 7.39567 5.32933 6.44567 6.138 5.637C6.946 4.829 7.896 4.18733 8.988 3.712C10.0793 3.23733 11.25 3 12.5 3C13.75 3 14.921 3.23733 16.013 3.712C17.1043 4.18733 18.0543 4.829 18.863 5.637C19.671 6.44567 20.3127 7.39567 20.788 8.487C21.2627 9.579 21.5 10.75 21.5 12C21.5 13.25 21.2627 14.4207 20.788 15.512C20.3127 16.604 19.671 17.554 18.863 18.362C18.0543 19.1707 17.1043 19.8127 16.013 20.288C14.921 20.7627 13.75 21 12.5 21ZM12.5 20C14.7333 20 16.625 19.225 18.175 17.675C19.725 16.125 20.5 14.2333 20.5 12C20.5 9.76667 19.725 7.875 18.175 6.325C16.625 4.775 14.7333 4 12.5 4C10.2667 4 8.375 4.775 6.825 6.325C5.275 7.875 4.5 9.76667 4.5 12C4.5 14.2333 5.275 16.125 6.825 17.675C8.375 19.225 10.2667 20 12.5 20Z" fill="#1C1B1F"/>
</svg>
