<svg width="159" height="143" viewBox="0 0 159 143" fill="none" xmlns="http://www.w3.org/2000/svg">
<path fill-rule="evenodd" clip-rule="evenodd" d="M71.1663 15.4885C59.1731 6.84757 49.1784 4.89985 42.9087 8.51966C36.639 12.1395 33.3285 21.769 34.8151 36.4759C34.9253 37.5656 35.0614 38.6754 35.2234 39.8036C42.179 37.651 49.9129 36.004 58.1756 34.9628C63.2087 28.3276 68.502 22.4533 73.844 17.506C72.948 16.8016 72.055 16.1288 71.1663 15.4885ZM79.0459 12.9935C77.7366 11.9343 76.4285 10.9338 75.1247 9.99443C62.7544 1.08178 49.5377 -3.12669 39.5229 2.65534C29.5082 8.43736 26.5445 21.9876 28.0779 37.1569C28.2395 38.7557 28.452 40.3888 28.7146 42.0523C27.1427 42.6566 25.6221 43.2892 24.1567 43.9486C10.253 50.2053 0 59.5471 0 71.1111C0 82.6752 10.253 92.0169 24.1567 98.2736C25.6221 98.933 27.1427 99.5656 28.7146 100.17C28.452 101.833 28.2395 103.466 28.0779 105.065C26.5445 120.235 29.5082 133.785 39.5229 139.567C49.5377 145.349 62.7544 141.14 75.1247 132.228C76.4285 131.288 77.7366 130.288 79.0459 129.229C80.3552 130.288 81.6633 131.288 82.9671 132.228C95.3374 141.14 108.554 145.349 118.569 139.567C128.584 133.785 131.547 120.235 130.014 105.065C129.852 103.466 129.64 101.833 129.377 100.17C130.949 99.5656 132.47 98.933 133.935 98.2736C147.839 92.0169 158.092 82.6752 158.092 71.1111C158.092 59.5471 147.839 50.2053 133.935 43.9486C132.47 43.2892 130.949 42.6566 129.377 42.0523C129.64 40.3888 129.852 38.7557 130.014 37.1569C131.547 21.9876 128.584 8.43737 118.569 2.65534C108.554 -3.12669 95.3374 1.08179 82.9671 9.99443C81.6633 10.9338 80.3552 11.9343 79.0459 12.9935ZM79.0459 21.9222C75.1846 25.4423 71.3134 29.5111 67.5328 34.0622C71.2942 33.809 75.1388 33.6783 79.0459 33.6783C82.953 33.6783 86.7976 33.809 90.559 34.0622C86.7784 29.5111 82.9072 25.4423 79.0459 21.9222ZM99.9162 34.9627C94.8831 28.3276 89.5898 22.4534 84.2478 17.506C85.1438 16.8016 86.0368 16.1288 86.9255 15.4885C98.9187 6.84757 108.913 4.89985 115.183 8.51966C121.453 12.1395 124.763 21.769 123.277 36.4759C123.167 37.5656 123.03 38.6754 122.868 39.8036C115.913 37.651 108.179 36.004 99.9162 34.9627ZM96.2283 41.3504C90.7272 40.7627 84.9744 40.4498 79.0459 40.4498C73.1174 40.4498 67.3646 40.7627 61.8635 41.3504C58.604 45.8206 55.4567 50.6462 52.4924 55.7805C49.5282 60.9147 46.9228 66.0532 44.6812 71.1111C46.9228 76.1691 49.5282 81.3075 52.4924 86.4418C55.4567 91.576 58.604 96.4016 61.8635 100.872C67.3647 101.46 73.1174 101.772 79.0459 101.772C84.9744 101.772 90.7272 101.46 96.2283 100.872C99.4878 96.4016 102.635 91.576 105.599 86.4418C108.564 81.3075 111.169 76.1691 113.411 71.1111C111.169 66.0532 108.564 60.9147 105.599 55.7805C102.635 50.6462 99.4878 45.8206 96.2283 41.3504ZM116.888 62.5573C115.226 59.1732 113.417 55.7783 111.464 52.3947C109.51 49.0111 107.475 45.7469 105.375 42.616C111.206 43.6145 116.666 44.9328 121.645 46.5167C120.527 51.6207 118.939 57.0076 116.888 62.5573ZM116.888 79.6649C115.226 83.049 113.417 86.4439 111.464 89.8275C109.51 93.2112 107.475 96.4753 105.375 99.6062C111.206 98.6077 116.666 97.2895 121.645 95.7056C120.527 90.6016 118.939 85.2146 116.888 79.6649ZM128.07 93.4087C126.457 86.3087 124.016 78.7875 120.786 71.1111C124.016 63.4347 126.457 55.9135 128.07 48.8135C129.128 49.2373 130.157 49.6743 131.156 50.1238C144.636 56.1897 151.32 63.8715 151.32 71.1111C151.32 78.3507 144.636 86.0325 131.156 92.0985C130.157 92.548 129.128 92.9849 128.07 93.4087ZM122.868 102.419C115.913 104.571 108.179 106.218 99.9162 107.259C94.8831 113.895 89.5898 119.769 84.2478 124.716C85.1438 125.421 86.0368 126.093 86.9255 126.734C98.9187 135.375 108.913 137.322 115.183 133.703C121.453 130.083 124.763 120.453 123.277 105.746C123.167 104.657 123.03 103.547 122.868 102.419ZM79.0459 120.3C82.9072 116.78 86.7784 112.711 90.559 108.16C86.7976 108.413 82.953 108.544 79.0459 108.544C75.1388 108.544 71.2942 108.413 67.5328 108.16C71.3134 112.711 75.1846 116.78 79.0459 120.3ZM52.7172 99.6062C50.6172 96.4753 48.5817 93.2112 46.6281 89.8275C44.6746 86.4439 42.8655 83.049 41.204 79.6649C39.1529 85.2146 37.5649 90.6016 36.4471 95.7056C41.4262 97.2895 46.8855 98.6077 52.7172 99.6062ZM35.2234 102.419C42.179 104.571 49.9129 106.218 58.1756 107.259C63.2087 113.895 68.502 119.769 73.844 124.716C72.948 125.421 72.055 126.093 71.1663 126.734C59.1731 135.375 49.1784 137.322 42.9087 133.703C36.639 130.083 33.3285 120.453 34.8151 105.746C34.9253 104.657 35.0614 103.547 35.2234 102.419ZM30.0215 93.4087C31.6351 86.3087 34.0757 78.7875 37.3054 71.1111C34.0757 63.4347 31.6351 55.9135 30.0215 48.8135C28.9635 49.2373 27.9344 49.6743 26.9355 50.1238C13.4557 56.1897 6.77154 63.8715 6.77154 71.1111C6.77154 78.3507 13.4557 86.0325 26.9355 92.0985C27.9344 92.548 28.9635 92.9849 30.0215 93.4087ZM36.4471 46.5167C37.5649 51.6207 39.1529 57.0077 41.204 62.5573C42.8655 59.1732 44.6746 55.7783 46.6281 52.3947C48.5817 49.0111 50.6172 45.7469 52.7172 42.616C46.8855 43.6145 41.4262 44.9328 36.4471 46.5167ZM60.5281 71.1111C60.5281 60.884 68.8188 52.5933 79.0459 52.5933C89.273 52.5933 97.5637 60.884 97.5637 71.1111C97.5637 81.3382 89.273 89.6289 79.0459 89.6289C68.8188 89.6289 60.5281 81.3382 60.5281 71.1111Z" fill="#75C1D9"/>
</svg>
