<svg width="171" height="171" viewBox="0 0 171 171" fill="none" xmlns="http://www.w3.org/2000/svg">
<g id="asterisk">
<mask id="mask0_87_532" style="mask-type:alpha" maskUnits="userSpaceOnUse" x="0" y="0" width="171" height="171">
<rect id="Bounding box" x="0.5" y="0.5" width="170" height="170" fill="#D9D9D9" stroke="#DADADA"/>
</mask>
<g mask="url(#mask0_87_532)">
<path id="asterisk_2" d="M79.4375 142.5V145H81.9375H89.0625H91.5625V142.5V100.146L121.52 130.14L123.313 131.934L125.081 130.116L130.028 125.033L131.748 123.264L130.002 121.52L100.009 91.5625H142.5H145V89.0625V81.9375V79.4375H142.5H100.009L130.002 49.4796L131.772 47.7118L130.004 45.943L125.057 40.9965L123.288 39.2277L121.52 40.9975L91.5625 70.9913V28.5V26H89.0625H81.9375H79.4375V28.5V70.9913L49.4796 40.9975L47.7359 39.2517L45.9674 40.9725L40.8837 45.919L39.0662 47.6875L40.8604 49.4796L70.8542 79.4375H28.5H26V81.9375V89.0625V91.5625H28.5H70.8542L40.8604 121.52L39.0905 123.288L40.8594 125.057L45.943 130.141L47.7119 131.91L49.4796 130.14L79.4375 100.146V142.5Z" fill="#DADADA" stroke="#DADADA" stroke-width="5"/>
</g>
</g>
</svg>
