<svg width="32" height="32" viewBox="0 0 32 32" fill="none" xmlns="http://www.w3.org/2000/svg">
<mask id="mask0_241_1173" style="mask-type:alpha" maskUnits="userSpaceOnUse" x="0" y="0" width="32" height="32">
<rect width="32" height="32" fill="#D9D9D9"/>
</mask>
<g mask="url(#mask0_241_1173)">
<path d="M16 21.0513L10.3077 15.359L11.713 13.913L15 17.2V6H17V17.2L20.287 13.913L21.6923 15.359L16 21.0513ZM8.41033 26C7.73678 26 7.16667 25.7667 6.7 25.3C6.23333 24.8333 6 24.2632 6 23.5897V19.9743H8V23.5897C8 23.6923 8.04278 23.7863 8.12833 23.8717C8.21367 23.9572 8.30767 24 8.41033 24H23.5897C23.6923 24 23.7863 23.9572 23.8717 23.8717C23.9572 23.7863 24 23.6923 24 23.5897V19.9743H26V23.5897C26 24.2632 25.7667 24.8333 25.3 25.3C24.8333 25.7667 24.2632 26 23.5897 26H8.41033Z" fill="#F0F4F8"/>
</g>
</svg>
