<svg width="25" height="25" viewBox="0 0 25 25" fill="none" xmlns="http://www.w3.org/2000/svg">
<path d="M6.92921 16.2948L6.63049 16.8121L9.70017 18.067L12.3218 20.098L12.6205 19.5806L10.631 17.0523C10.9899 16.7802 11.2454 16.2861 11.6104 15.8289L12.1666 15.8693L12.5549 16.0935C12.8736 16.0081 13.4275 15.0594 13.6549 14.6478C13.7129 14.5429 13.675 14.4119 13.5711 14.3519L13.0343 14.042C12.9994 14.0219 12.9598 14.0115 12.9195 14.012L12.8838 14.0124C13.1168 13.6428 13.2594 13.3959 13.2594 13.3959L18.856 17.1445L19.3974 16.2067L14.4169 11.391L16.3212 8.09265C16.6946 7.44591 16.8193 6.48313 16.4959 6.29643C16.1726 6.10974 15.4011 6.69912 15.0277 7.34586L13.1234 10.6442L6.46266 8.73883L5.92124 9.6766L11.9659 12.6491C11.9659 12.6491 11.8223 12.8979 11.6175 13.287L11.5953 13.2474C11.5756 13.2123 11.5468 13.1832 11.5119 13.1631L10.9751 12.8531C10.8712 12.7932 10.7388 12.8258 10.6769 12.9285C10.4342 13.3312 9.88954 14.2853 9.97494 14.604L10.3633 14.8282L10.6846 15.2904C10.4705 15.8362 10.1699 16.3058 10.1136 16.7535L6.92921 16.2948Z" fill="#122945"/>
</svg>
