<svg width="44" height="44" viewBox="0 0 44 44" fill="none" xmlns="http://www.w3.org/2000/svg">
<path d="M11.3934 28.0398L10.8623 28.9597L16.3195 31.1906L20.9801 34.8012L21.5112 33.8814L17.9743 29.3865C18.6123 28.9028 19.0666 28.0245 19.7155 27.2116L20.7042 27.2835L21.3947 27.6821C21.9612 27.5303 22.9459 25.8437 23.3502 25.112C23.4533 24.9254 23.3858 24.6926 23.2012 24.586L22.2468 24.035C22.1849 23.9992 22.1144 23.9808 22.0428 23.9816L21.9793 23.9824C22.3935 23.3253 22.647 22.8863 22.647 22.8863L32.5965 29.5504L33.559 27.8833L24.7048 19.3221L28.0902 13.4583C28.754 12.3086 28.9757 10.597 28.4009 10.2651C27.826 9.93315 26.4545 10.981 25.7907 12.1307L22.4053 17.9944L10.5639 14.6071L9.60141 16.2742L20.3475 21.5587C20.3475 21.5587 20.0921 22.001 19.728 22.6926L19.6886 22.6224C19.6536 22.56 19.6024 22.5082 19.5404 22.4724L18.5861 21.9214C18.4014 21.8148 18.166 21.8728 18.056 22.0554C17.6244 22.7714 16.6562 24.4675 16.808 25.034L17.4984 25.4326L18.0696 26.2544C17.6891 27.2247 17.1545 28.0595 17.0545 28.8555L11.3934 28.0398Z" fill="#75C1D9"/>
</svg>
