<svg width="1279" height="590" viewBox="0 0 1279 590" fill="none" xmlns="http://www.w3.org/2000/svg">
<g opacity="0.8" filter="url(#filter0_f_229_2027)">
<path d="M65.6239 290.167L107.577 133.596L367.932 203.358L300.088 456.556L65.6239 290.167Z" fill="#F7F7FC"/>
</g>
<g clip-path="url(#clip0_229_2027)">
<path fill-rule="evenodd" clip-rule="evenodd" d="M190.529 216.848L309.675 248.773C292.126 314.264 249.28 370.102 190.563 404.003C131.845 437.903 62.0648 447.09 -3.42642 429.542L28.4987 310.396C62.3904 319.477 98.5015 314.723 128.888 297.179C159.274 279.635 181.447 250.739 190.529 216.848Z" fill="#F1F1FC"/>
</g>
<g clip-path="url(#clip1_229_2027)">
<path fill-rule="evenodd" clip-rule="evenodd" d="M193.51 239.791L304.008 269.399C287.733 330.137 247.998 381.922 193.542 413.362C139.086 444.802 74.3709 453.322 13.6334 437.047L43.2412 326.549C74.6729 334.971 108.163 330.562 136.344 314.292C164.525 298.022 185.088 271.223 193.51 239.791Z" fill="#BED359"/>
</g>
<path d="M1268.73 466.642L1270.24 471.625C1270.5 472.491 1271.18 473.169 1272.05 473.43L1277.03 474.939C1277.36 475.038 1277.54 475.381 1277.44 475.705C1277.38 475.902 1277.23 476.056 1277.03 476.116L1272.05 477.625C1271.18 477.886 1270.5 478.564 1270.24 479.43L1268.73 484.413C1268.64 484.739 1268.3 484.926 1267.97 484.83C1267.77 484.771 1267.61 484.614 1267.55 484.413L1266.04 479.43C1265.78 478.564 1265.1 477.886 1264.24 477.625L1259.25 476.116C1258.93 476.018 1258.74 475.675 1258.84 475.35C1258.9 475.153 1259.06 474.999 1259.25 474.939L1264.24 473.43C1265.1 473.169 1265.78 472.492 1266.04 471.625L1267.55 466.642C1267.65 466.316 1267.99 466.13 1268.32 466.225C1268.52 466.284 1268.67 466.441 1268.73 466.642Z" fill="#EE7D6E"/>
<path d="M1251.39 458.208V458.209C1251.65 459.065 1252.32 459.734 1253.18 459.992L1256.59 461.024L1253.18 462.058C1252.37 462.3 1251.73 462.904 1251.44 463.684L1251.39 463.842L1250.36 467.257L1249.32 463.843C1249.06 462.986 1248.39 462.316 1247.54 462.058L1244.12 461.024L1247.54 459.992C1248.39 459.734 1249.06 459.063 1249.32 458.207L1250.36 454.792L1251.39 458.208Z" fill="white" stroke="#1E2833" stroke-width="1.2"/>
<path d="M1263.99 447.504L1264.65 449.697C1264.77 450.078 1265.07 450.376 1265.45 450.491L1267.64 451.155C1267.78 451.199 1267.87 451.35 1267.82 451.493C1267.8 451.579 1267.73 451.647 1267.64 451.673L1265.45 452.337C1265.07 452.452 1264.77 452.75 1264.65 453.131L1263.99 455.324C1263.95 455.468 1263.8 455.55 1263.65 455.507C1263.56 455.482 1263.5 455.412 1263.47 455.324L1262.81 453.131C1262.69 452.75 1262.39 452.452 1262.01 452.337L1259.82 451.673C1259.67 451.63 1259.59 451.479 1259.64 451.336C1259.66 451.249 1259.73 451.182 1259.82 451.155L1262.01 450.491C1262.39 450.377 1262.69 450.078 1262.81 449.697L1263.47 447.504C1263.51 447.361 1263.66 447.279 1263.81 447.321C1263.89 447.347 1263.96 447.416 1263.99 447.504Z" fill="#BED359"/>
<defs>
<filter id="filter0_f_229_2027" x="-67.7094" y="0.262863" width="568.975" height="589.627" filterUnits="userSpaceOnUse" color-interpolation-filters="sRGB">
<feFlood flood-opacity="0" result="BackgroundImageFix"/>
<feBlend mode="normal" in="SourceGraphic" in2="BackgroundImageFix" result="shape"/>
<feGaussianBlur stdDeviation="66.6667" result="effect1_foregroundBlur_229_2027"/>
</filter>
<clipPath id="clip0_229_2027">
<rect width="255.646" height="255.646" fill="white" transform="matrix(-0.258819 0.965926 0.965926 0.258819 62.7389 182.61)"/>
</clipPath>
<clipPath id="clip1_229_2027">
<rect width="237.09" height="237.09" fill="white" transform="matrix(-0.258819 0.965926 0.965926 0.258819 74.996 208.039)"/>
</clipPath>
</defs>
</svg>
